# Blender v2.81 (sub 16) OBJ File: ''
# www.blender.org
mtllib hoop.mtl
o Cylinder.060
v 0.000000 -0.250000 -1.500000
v 0.000000 0.250000 -1.500000
v 0.292636 -0.250000 -1.471178
v 0.292636 0.250000 -1.471178
v 0.574025 -0.250000 -1.385819
v 0.574025 0.250000 -1.385819
v 0.833355 -0.250000 -1.247204
v 0.833355 0.250000 -1.247204
v 1.060660 -0.250000 -1.060660
v 1.060660 0.250000 -1.060660
v 1.247205 -0.250000 -0.833355
v 1.247205 0.250000 -0.833355
v 1.385819 -0.250000 -0.574025
v 1.385819 0.250000 -0.574025
v 1.471178 -0.250000 -0.292636
v 1.471178 0.250000 -0.292636
v 1.500000 -0.250000 -0.000000
v 1.500000 0.250000 -0.000000
v 1.471178 -0.250000 0.292635
v 1.471178 0.250000 0.292635
v 1.385819 -0.250000 0.574025
v 1.385819 0.250000 0.574025
v 1.247205 -0.250000 0.833355
v 1.247205 0.250000 0.833355
v 1.060660 -0.250000 1.060660
v 1.060660 0.250000 1.060660
v 0.833355 -0.250000 1.247205
v 0.833355 0.250000 1.247205
v 0.574025 -0.250000 1.385819
v 0.574025 0.250000 1.385819
v 0.292635 -0.250000 1.471178
v 0.292635 0.250000 1.471178
v -0.000000 -0.250000 1.500000
v -0.000000 0.250000 1.500000
v -0.292636 -0.250000 1.471178
v -0.292636 0.250000 1.471178
v -0.574026 -0.250000 1.385819
v -0.574026 0.250000 1.385819
v -0.833356 -0.250000 1.247204
v -0.833356 0.250000 1.247204
v -1.060661 -0.250000 1.060660
v -1.060661 0.250000 1.060660
v -1.247205 -0.250000 0.833354
v -1.247205 0.250000 0.833354
v -1.385820 -0.250000 0.574024
v -1.385820 0.250000 0.574024
v -1.471178 -0.250000 0.292634
v -1.471178 0.250000 0.292634
v -1.500000 -0.250000 -0.000001
v -1.500000 0.250000 -0.000001
v -1.471178 -0.250000 -0.292637
v -1.471178 0.250000 -0.292637
v -1.385819 -0.250000 -0.574027
v -1.385819 0.250000 -0.574027
v -1.247203 -0.250000 -0.833357
v -1.247203 0.250000 -0.833357
v -1.060659 -0.250000 -1.060662
v -1.060659 0.250000 -1.060662
v -0.833354 -0.250000 -1.247205
v -0.833354 0.250000 -1.247205
v -0.574023 -0.250000 -1.385820
v -0.574023 0.250000 -1.385820
v -0.292633 -0.250000 -1.471178
v -0.292633 0.250000 -1.471178
v -1.196820 0.250000 -0.215701
v -1.196820 -0.250000 -0.215701
v 1.014615 0.250000 0.614262
v 1.014615 -0.250000 0.614262
v 1.196820 0.250000 0.215700
v 1.196820 -0.250000 0.215700
v 1.127380 0.250000 0.423110
v 1.127380 -0.250000 0.423110
v -1.220267 0.250000 -0.000001
v -1.220267 -0.250000 -0.000001
v -0.238063 0.250000 1.084397
v -0.238063 -0.250000 1.084397
v 0.466976 0.250000 -1.021480
v 0.466976 -0.250000 -1.021480
v 0.677944 0.250000 -0.919308
v 0.677944 -0.250000 -0.919308
v 1.196820 0.250000 -0.215700
v 1.196820 -0.250000 -0.215700
v -0.466977 0.250000 1.021480
v -0.466977 -0.250000 1.021480
v 1.220267 0.250000 -0.000000
v 1.220267 -0.250000 -0.000000
v 1.014615 0.250000 -0.614262
v 1.014615 -0.250000 -0.614262
v 0.862859 0.250000 -0.781807
v 0.862859 -0.250000 -0.781807
v 0.238062 0.250000 1.084397
v 0.238062 -0.250000 1.084397
v -1.127379 0.250000 -0.423113
v -1.127379 -0.250000 -0.423113
v 0.862859 0.250000 0.781807
v 0.862859 -0.250000 0.781807
v -1.014614 0.250000 -0.614263
v -1.014614 -0.250000 -0.614263
v 0.466976 0.250000 1.021480
v 0.466976 -0.250000 1.021480
v 0.238062 0.250000 -1.084397
v 0.238062 -0.250000 -1.084397
v -0.238061 0.250000 -1.084398
v -0.238061 -0.250000 -1.084398
v 0.000000 0.250000 -1.105642
v 0.000000 -0.250000 -1.105642
v 0.677944 0.250000 0.919308
v 0.677944 -0.250000 0.919308
v -1.196820 0.250000 0.215699
v -1.196820 -0.250000 0.215699
v -1.127381 0.250000 0.423110
v -1.127380 -0.250000 0.423110
v -0.862858 0.250000 -0.781808
v -0.862858 -0.250000 -0.781808
v -0.677943 0.250000 -0.919309
v -0.677943 -0.250000 -0.919309
v -0.466974 0.250000 -1.021481
v -0.466974 -0.250000 -1.021481
v -1.014616 0.250000 0.614261
v -1.014616 -0.250000 0.614261
v -0.862860 0.250000 0.781806
v -0.862860 -0.250000 0.781806
v -0.677945 0.250000 0.919307
v -0.677945 -0.250000 0.919307
v -0.000000 0.250000 1.105642
v -0.000000 -0.250000 1.105642
v 1.127380 0.250000 -0.423111
v 1.127380 -0.250000 -0.423111
vt 1.000000 0.500000
vt 1.000000 1.000000
vt 0.968750 1.000000
vt 0.968750 0.500000
vt 0.937500 1.000000
vt 0.937500 0.500000
vt 0.906250 1.000000
vt 0.906250 0.500000
vt 0.875000 1.000000
vt 0.875000 0.500000
vt 0.843750 1.000000
vt 0.843750 0.500000
vt 0.812500 1.000000
vt 0.812500 0.500000
vt 0.781250 1.000000
vt 0.781250 0.500000
vt 0.750000 1.000000
vt 0.750000 0.500000
vt 0.718750 1.000000
vt 0.718750 0.500000
vt 0.687500 1.000000
vt 0.687500 0.500000
vt 0.656250 1.000000
vt 0.656250 0.500000
vt 0.625000 1.000000
vt 0.625000 0.500000
vt 0.593750 1.000000
vt 0.593750 0.500000
vt 0.562500 1.000000
vt 0.562500 0.500000
vt 0.531250 1.000000
vt 0.531250 0.500000
vt 0.500000 1.000000
vt 0.500000 0.500000
vt 0.468750 1.000000
vt 0.468750 0.500000
vt 0.437500 1.000000
vt 0.437500 0.500000
vt 0.406250 1.000000
vt 0.406250 0.500000
vt 0.375000 1.000000
vt 0.375000 0.500000
vt 0.343750 1.000000
vt 0.343750 0.500000
vt 0.312500 1.000000
vt 0.312500 0.500000
vt 0.281250 1.000000
vt 0.281250 0.500000
vt 0.250000 1.000000
vt 0.250000 0.500000
vt 0.218750 1.000000
vt 0.218750 0.500000
vt 0.187500 1.000000
vt 0.187500 0.500000
vt 0.156250 1.000000
vt 0.156250 0.500000
vt 0.125000 1.000000
vt 0.125000 0.500000
vt 0.093750 1.000000
vt 0.093750 0.500000
vt 0.062500 1.000000
vt 0.062500 0.500000
vt 0.296822 0.485388
vt 0.250000 0.490000
vt 0.203179 0.485389
vt 0.158156 0.471731
vt 0.116663 0.449553
vt 0.080295 0.419706
vt 0.050447 0.383337
vt 0.028269 0.341844
vt 0.014612 0.296822
vt 0.010000 0.250000
vt 0.054757 0.250000
vt 0.058509 0.284512
vt 0.069619 0.317698
vt 0.087662 0.348282
vt 0.111943 0.375089
vt 0.141529 0.397090
vt 0.175284 0.413437
vt 0.211910 0.423504
vt 0.250000 0.426903
vt 0.288090 0.423504
vt 0.324716 0.413437
vt 0.358471 0.397089
vt 0.388057 0.375089
vt 0.412338 0.348282
vt 0.430381 0.317698
vt 0.441491 0.284512
vt 0.445243 0.250000
vt 0.490000 0.250000
vt 0.485388 0.296822
vt 0.471731 0.341844
vt 0.449553 0.383337
vt 0.419706 0.419706
vt 0.383337 0.449553
vt 0.341844 0.471731
vt 0.031250 1.000000
vt 0.031250 0.500000
vt 0.000000 1.000000
vt 0.000000 0.500000
vt 0.750000 0.490000
vt 0.796822 0.485388
vt 0.841844 0.471731
vt 0.883337 0.449553
vt 0.919706 0.419706
vt 0.949553 0.383337
vt 0.971731 0.341844
vt 0.985388 0.296822
vt 0.990000 0.250000
vt 0.945243 0.250000
vt 0.941491 0.284512
vt 0.930381 0.317698
vt 0.912338 0.348282
vt 0.888057 0.375089
vt 0.858471 0.397089
vt 0.824716 0.413437
vt 0.788090 0.423504
vt 0.750000 0.426903
vt 0.711910 0.423504
vt 0.675284 0.413437
vt 0.641529 0.397089
vt 0.611943 0.375089
vt 0.587662 0.348282
vt 0.569619 0.317698
vt 0.558509 0.284512
vt 0.554757 0.250000
vt 0.510000 0.250000
vt 0.514612 0.296822
vt 0.528269 0.341844
vt 0.550447 0.383337
vt 0.580295 0.419706
vt 0.616663 0.449553
vt 0.658156 0.471731
vt 0.703179 0.485389
vt 0.968750 0.856576
vt 0.968750 0.881160
vt 1.000000 0.881160
vt 1.000000 0.856576
vt 0.281250 0.856576
vt 0.281250 0.881160
vt 0.312500 0.881160
vt 0.312500 0.856576
vt 0.441491 0.215488
vt 0.430381 0.182302
vt 0.412338 0.151718
vt 0.388058 0.124911
vt 0.358471 0.102911
vt 0.324716 0.086563
vt 0.288090 0.076497
vt 0.250000 0.073097
vt 0.211910 0.076496
vt 0.175284 0.086563
vt 0.141529 0.102911
vt 0.111942 0.124911
vt 0.087661 0.151718
vt 0.069619 0.182302
vt 0.058509 0.215488
vt 0.014611 0.203179
vt 0.028269 0.158156
vt 0.050447 0.116663
vt 0.080294 0.080294
vt 0.116663 0.050447
vt 0.158156 0.028269
vt 0.203178 0.014612
vt 0.250000 0.010000
vt 0.296822 0.014612
vt 0.341844 0.028269
vt 0.383337 0.050447
vt 0.419706 0.080294
vt 0.449553 0.116663
vt 0.471731 0.158156
vt 0.485388 0.203178
vt 0.468750 0.856576
vt 0.468750 0.881160
vt 0.500000 0.881160
vt 0.500000 0.856576
vt 0.531250 0.856576
vt 0.531250 0.881160
vt 0.562500 0.881160
vt 0.562500 0.856576
vt 0.156250 0.856576
vt 0.156250 0.881160
vt 0.187500 0.881160
vt 0.187500 0.856576
vt 0.558509 0.215488
vt 0.569619 0.182302
vt 0.587661 0.151718
vt 0.611942 0.124911
vt 0.641529 0.102911
vt 0.675284 0.086563
vt 0.711910 0.076497
vt 0.750000 0.073097
vt 0.788090 0.076497
vt 0.824716 0.086563
vt 0.858471 0.102911
vt 0.888058 0.124911
vt 0.912338 0.151718
vt 0.930381 0.182302
vt 0.941491 0.215488
vt 0.985388 0.203178
vt 0.971731 0.158156
vt 0.949553 0.116663
vt 0.919706 0.080294
vt 0.883337 0.050447
vt 0.841844 0.028269
vt 0.796822 0.014612
vt 0.750000 0.010000
vt 0.703178 0.014612
vt 0.658156 0.028269
vt 0.616663 0.050447
vt 0.580294 0.080294
vt 0.550447 0.116663
vt 0.528269 0.158156
vt 0.514611 0.203179
vt 0.812500 0.856576
vt 0.812500 0.881160
vt 0.843750 0.881160
vt 0.843750 0.856576
vt 0.687500 0.856576
vt 0.687500 0.881160
vt 0.718750 0.881160
vt 0.718750 0.856576
vt 0.656250 0.856576
vt 0.656250 0.881160
vt 0.750000 0.856576
vt 0.750000 0.881160
vt 0.781250 0.881160
vt 0.781250 0.856576
vt 0.406250 0.856576
vt 0.406250 0.881160
vt 0.437500 0.881160
vt 0.437500 0.856576
vt 0.625000 0.856576
vt 0.625000 0.881160
vt 0.000000 0.856576
vt 0.000000 0.881160
vt 0.031250 0.881160
vt 0.031250 0.856576
vt 0.875000 0.856576
vt 0.875000 0.881160
vt 0.906250 0.881160
vt 0.906250 0.856576
vt 0.593750 0.881160
vt 0.593750 0.856576
vt 0.343750 0.856576
vt 0.343750 0.881160
vt 0.375000 0.881160
vt 0.375000 0.856576
vt 0.218750 0.856576
vt 0.218750 0.881160
vt 0.250000 0.881160
vt 0.250000 0.856576
vt 0.125000 0.856576
vt 0.125000 0.881160
vt 0.062500 0.881160
vt 0.062500 0.856576
vt 0.093750 0.881160
vt 0.093750 0.856576
vt 0.937500 0.856576
vt 0.937500 0.881160
vn 0.0980 0.0000 -0.9952
vn 0.2903 0.0000 -0.9569
vn 0.4714 0.0000 -0.8819
vn 0.6344 0.0000 -0.7730
vn 0.7730 0.0000 -0.6344
vn 0.8819 0.0000 -0.4714
vn 0.9569 0.0000 -0.2903
vn 0.9952 0.0000 -0.0980
vn 0.9952 0.0000 0.0980
vn 0.9569 0.0000 0.2903
vn 0.8819 0.0000 0.4714
vn 0.7730 0.0000 0.6344
vn 0.6344 0.0000 0.7730
vn 0.4714 0.0000 0.8819
vn 0.2903 0.0000 0.9569
vn 0.0980 0.0000 0.9952
vn -0.0980 0.0000 0.9952
vn -0.2903 0.0000 0.9569
vn -0.4714 0.0000 0.8819
vn -0.6344 0.0000 0.7730
vn -0.7730 0.0000 0.6344
vn -0.8819 0.0000 0.4714
vn -0.9569 0.0000 0.2903
vn -0.9952 0.0000 0.0980
vn -0.9952 0.0000 -0.0980
vn -0.9569 0.0000 -0.2903
vn -0.8819 0.0000 -0.4714
vn -0.7730 0.0000 -0.6344
vn -0.6344 0.0000 -0.7730
vn -0.4714 0.0000 -0.8819
vn 0.0000 1.0000 -0.0000
vn -0.2903 0.0000 -0.9569
vn -0.0980 0.0000 -0.9952
vn -0.0000 -1.0000 0.0000
vn -0.0889 0.0000 0.9960
vn 0.9483 0.0000 -0.3175
vn 0.0889 0.0000 -0.9960
vn -0.2650 -0.0000 -0.9642
vn 0.8613 0.0000 0.5081
vn -0.8613 0.0000 0.5081
vn -0.9483 0.0000 -0.3175
vn -0.8613 0.0000 -0.5081
vn -0.9941 0.0000 0.1081
vn 0.4359 0.0000 -0.9000
vn -0.9483 0.0000 0.3175
vn -0.7412 0.0000 -0.6713
vn 0.0889 0.0000 0.9960
vn 0.2650 0.0000 -0.9642
vn -0.5967 -0.0000 0.8025
vn -0.4359 0.0000 -0.9000
vn 0.7412 0.0000 -0.6713
vn -0.5967 0.0000 -0.8025
vn 0.9941 0.0000 0.1081
vn 0.9941 0.0000 -0.1081
vn -0.7412 0.0000 0.6713
vn 0.7412 0.0000 0.6713
vn 0.2650 0.0000 0.9642
vn 0.9483 0.0000 0.3175
vn -0.9941 0.0000 -0.1081
vn 0.4359 0.0000 0.9000
vn -0.0889 -0.0000 -0.9960
vn 0.5967 0.0000 -0.8025
vn 0.5967 0.0000 0.8025
vn -0.2650 0.0000 0.9642
vn 0.8613 0.0000 -0.5081
vn -0.4359 -0.0000 0.9000
usemtl None
s off
f 1/1/1 2/2/1 4/3/1 3/4/1
f 3/4/2 4/3/2 6/5/2 5/6/2
f 5/6/3 6/5/3 8/7/3 7/8/3
f 7/8/4 8/7/4 10/9/4 9/10/4
f 9/10/5 10/9/5 12/11/5 11/12/5
f 11/12/6 12/11/6 14/13/6 13/14/6
f 13/14/7 14/13/7 16/15/7 15/16/7
f 15/16/8 16/15/8 18/17/8 17/18/8
f 17/18/9 18/17/9 20/19/9 19/20/9
f 19/20/10 20/19/10 22/21/10 21/22/10
f 21/22/11 22/21/11 24/23/11 23/24/11
f 23/24/12 24/23/12 26/25/12 25/26/12
f 25/26/13 26/25/13 28/27/13 27/28/13
f 27/28/14 28/27/14 30/29/14 29/30/14
f 29/30/15 30/29/15 32/31/15 31/32/15
f 31/32/16 32/31/16 34/33/16 33/34/16
f 33/34/17 34/33/17 36/35/17 35/36/17
f 35/36/18 36/35/18 38/37/18 37/38/18
f 37/38/19 38/37/19 40/39/19 39/40/19
f 39/40/20 40/39/20 42/41/20 41/42/20
f 41/42/21 42/41/21 44/43/21 43/44/21
f 43/44/22 44/43/22 46/45/22 45/46/22
f 45/46/23 46/45/23 48/47/23 47/48/23
f 47/48/24 48/47/24 50/49/24 49/50/24
f 49/50/25 50/49/25 52/51/25 51/52/25
f 51/52/26 52/51/26 54/53/26 53/54/26
f 53/54/27 54/53/27 56/55/27 55/56/27
f 55/56/28 56/55/28 58/57/28 57/58/28
f 57/58/29 58/57/29 60/59/29 59/60/29
f 59/60/30 60/59/30 62/61/30 61/62/30
f 4/63/31 2/64/31 64/65/31 62/66/31 60/67/31 58/68/31 56/69/31 54/70/31 52/71/31 50/72/31 73/73/31 65/74/31 93/75/31 97/76/31 113/77/31 115/78/31 117/79/31 103/80/31 105/81/31 101/82/31 77/83/31 79/84/31 89/85/31 87/86/31 127/87/31 81/88/31 85/89/31 18/90/31 16/91/31 14/92/31 12/93/31 10/94/31 8/95/31 6/96/31
f 61/62/32 62/61/32 64/97/32 63/98/32
f 63/98/33 64/97/33 2/99/33 1/100/33
f 1/101/34 3/102/34 5/103/34 7/104/34 9/105/34 11/106/34 13/107/34 15/108/34 17/109/34 86/110/34 82/111/34 128/112/34 88/113/34 90/114/34 80/115/34 78/116/34 102/117/34 106/118/34 104/119/34 118/120/34 116/121/34 114/122/34 98/123/34 94/124/34 66/125/34 74/126/34 49/127/34 51/128/34 53/129/34 55/130/34 57/131/34 59/132/34 61/133/34 63/134/34
f 102/135/35 101/136/35 105/137/35 106/138/35
f 110/139/36 109/140/36 111/141/36 112/142/36
f 18/90/31 85/89/31 69/143/31 71/144/31 67/145/31 95/146/31 107/147/31 99/148/31 91/149/31 125/150/31 75/151/31 83/152/31 123/153/31 121/154/31 119/155/31 111/156/31 109/157/31 73/73/31 50/72/31 48/158/31 46/159/31 44/160/31 42/161/31 40/162/31 38/163/31 36/164/31 34/165/31 32/166/31 30/167/31 28/168/31 26/169/31 24/170/31 22/171/31 20/172/31
f 76/173/37 75/174/37 125/175/37 126/176/37
f 92/177/38 91/178/38 99/179/38 100/180/38
f 98/181/39 97/182/39 93/183/39 94/184/39
f 49/127/34 74/126/34 110/185/34 112/186/34 120/187/34 122/188/34 124/189/34 84/190/34 76/191/34 126/192/34 92/193/34 100/194/34 108/195/34 96/196/34 68/197/34 72/198/34 70/199/34 86/110/34 17/109/34 19/200/34 21/201/34 23/202/34 25/203/34 27/204/34 29/205/34 31/206/34 33/207/34 35/208/34 37/209/34 39/210/34 41/211/34 43/212/34 45/213/34 47/214/34
f 128/215/40 127/216/40 87/217/40 88/218/40
f 72/219/41 71/220/41 69/221/41 70/222/41
f 68/223/42 67/224/42 71/220/42 72/219/42
f 86/225/43 85/226/43 81/227/43 82/228/43
f 124/229/44 123/230/44 83/231/44 84/232/44
f 82/228/45 81/227/45 127/216/45 128/215/45
f 96/233/46 95/234/46 67/224/46 68/223/46
f 106/235/47 105/236/47 103/237/47 104/238/47
f 84/232/48 83/231/48 75/174/48 76/173/48
f 90/239/49 89/240/49 79/241/49 80/242/49
f 100/180/50 99/179/50 107/243/50 108/244/50
f 120/245/51 119/246/51 121/247/51 122/248/51
f 108/244/52 107/243/52 95/234/52 96/233/52
f 66/249/53 65/250/53 73/251/53 74/252/53
f 74/252/54 73/251/54 109/140/54 110/139/54
f 88/218/55 87/217/55 89/240/55 90/239/55
f 114/253/56 113/254/56 97/182/56 98/181/56
f 104/238/57 103/237/57 117/255/57 118/256/57
f 94/184/58 93/183/58 65/250/58 66/249/58
f 70/222/59 69/221/59 85/226/59 86/225/59
f 118/256/60 117/255/60 115/257/60 116/258/60
f 126/176/61 125/175/61 91/178/61 92/177/61
f 122/248/62 121/247/62 123/230/62 124/229/62
f 116/258/63 115/257/63 113/254/63 114/253/63
f 78/259/64 77/260/64 101/136/64 102/135/64
f 112/142/65 111/141/65 119/246/65 120/245/65
f 80/242/66 79/241/66 77/260/66 78/259/66
